<svg xmlns="http://www.w3.org/2000/svg" viewBox="0 0 256 256" role="img" aria-labelledby="title desc">
  <title id="title">Zeroling's Space Icon</title>
  <desc id="desc">A pink and blue rounded-square favicon with a stylized Z.</desc>
  <defs>
    <linearGradient id="bg" x1="0%" y1="0%" x2="100%" y2="100%">
      <stop offset="0%" stop-color="#ffd2e8"/>
      <stop offset="52%" stop-color="#eef5ff"/>
      <stop offset="100%" stop-color="#cce8ff"/>
    </linearGradient>
    <linearGradient id="stroke" x1="18%" y1="10%" x2="83%" y2="90%">
      <stop offset="0%" stop-color="#ff4fa4"/>
      <stop offset="100%" stop-color="#1f9bff"/>
    </linearGradient>
    <filter id="shadow" x="-20%" y="-20%" width="140%" height="140%">
      <feDropShadow dx="0" dy="8" stdDeviation="12" flood-color="#9ccfff" flood-opacity="0.32"/>
    </filter>
  </defs>
  <rect x="12" y="12" width="232" height="232" rx="64" fill="url(#bg)" filter="url(#shadow)"/>
  <rect x="20" y="20" width="216" height="216" rx="56" fill="none" stroke="#ffffff" stroke-opacity="0.7" stroke-width="2"/>
  <path
    d="M79 74h100c8 0 14 6 14 14 0 4-2 8-5 11l-67 58h58c8 0 14 6 14 14s-6 14-14 14H77c-8 0-14-6-14-14 0-4 2-8 5-11l67-58H79c-8 0-14-6-14-14s6-14 14-14Z"
    fill="url(#stroke)"
  />
</svg>
